# xmcd
#
# Track frame offsets: 
#        150
#        18598
#        37408
#        61125
#        87300
#        105742
#        134716
#        158019
#        173618
#        196176
#        213558
#        235785
#        251207
#
# Disc length: 3906 seconds
#
# Revision: 0
# Processed by: cddbd v1.5.2PL0 Copyright (c) Steve Scherf et al.
# Submitted via: ExactAudioCopy v0.95b4
#
DISCID=b70f400d
DTITLE=Firing Line - "live" in the kitchen
DYEAR=2003
DGENRE=Blues
TTITLE0=try life on for size
TTITLE1=blues fallin down like rain
TTITLE2=midnight train
TTITLE3=pass this way again
TTITLE4=black magic woman
TTITLE5=before you accuse me
TTITLE6=promises
TTITLE7=bootleg
TTITLE8=if heartaches were nickels
TTITLE9=that kind of man
TTITLE10=take me to the river
TTITLE11=mail order mystics
TTITLE12=in memory of elizabeth reed
EXTD=
EXTT0=
EXTT1=
EXTT2=
EXTT3=
EXTT4=
EXTT5=
EXTT6=
EXTT7=
EXTT8=
EXTT9=
EXTT10=
EXTT11=
EXTT12=
PLAYORDER=
